<svg width="421" height="69" xmlns="http://www.w3.org/2000/svg" xmlns:xlink="http://www.w3.org/1999/xlink" xml:space="preserve" overflow="hidden"><defs><clipPath id="clip0"><rect x="289" y="444" width="421" height="69"/></clipPath><clipPath id="clip1"><rect x="289" y="444" width="421" height="69"/></clipPath><clipPath id="clip2"><rect x="290" y="444" width="420" height="69"/></clipPath><clipPath id="clip3"><rect x="290" y="444" width="420" height="69"/></clipPath><clipPath id="clip4"><rect x="290" y="444" width="420" height="69"/></clipPath></defs><g clip-path="url(#clip0)" transform="translate(-289 -444)"><g clip-path="url(#clip1)"><g clip-path="url(#clip2)"><g clip-path="url(#clip3)"><g clip-path="url(#clip4)"><path d="M0 0 69 0 69 69 0 69Z" fill="#3B7DD6" fill-rule="nonzero" fill-opacity="1" transform="matrix(1.01449 0 0 1 290 444)"/><text fill="#FFFFFF" fill-opacity="1" font-family="Arial,Arial_MSFontService,sans-serif" font-style="normal" font-variant="normal" font-weight="700" font-stretch="normal" font-size="48" text-anchor="start" direction="ltr" writing-mode="lr-tb" unicode-bidi="normal" text-decoration="none" transform="matrix(1 0 0 0.985714 307.668 495)">K</text><path d="M69 0 138 0 138 69 69 69Z" fill="#E63A1E" fill-rule="nonzero" fill-opacity="1" transform="matrix(1.01449 0 0 1 290 444)"/><text fill="#FFFFFF" fill-opacity="1" font-family="Arial,Arial_MSFontService,sans-serif" font-style="normal" font-variant="normal" font-weight="700" font-stretch="normal" font-size="48" text-anchor="start" direction="ltr" writing-mode="lr-tb" unicode-bidi="normal" text-decoration="none" transform="matrix(1 0 0 0.985714 377.668 495)">A</text><path d="M138 0 207 0 207 69 138 69Z" fill="#FF9800" fill-rule="nonzero" fill-opacity="1" transform="matrix(1.01449 0 0 1 290 444)"/><text fill="#FFFFFF" fill-opacity="1" font-family="Arial,Arial_MSFontService,sans-serif" font-style="normal" font-variant="normal" font-weight="700" font-stretch="normal" font-size="48" text-anchor="start" direction="ltr" writing-mode="lr-tb" unicode-bidi="normal" text-decoration="none" transform="matrix(1 0 0 0.985714 445.008 495)">M</text><path d="M207 0 276 0 276 69 207 69Z" fill="#9C27B0" fill-rule="nonzero" fill-opacity="1" transform="matrix(1.01449 0 0 1 290 444)"/><text fill="#FFFFFF" fill-opacity="1" font-family="Arial,Arial_MSFontService,sans-serif" font-style="normal" font-variant="normal" font-weight="700" font-stretch="normal" font-size="48" text-anchor="start" direction="ltr" writing-mode="lr-tb" unicode-bidi="normal" text-decoration="none" transform="matrix(1 0 0 0.985714 528.332 495)">I</text><path d="M276 0 345 0 345 69 276 69Z" fill="#00C853" fill-rule="nonzero" fill-opacity="1" transform="matrix(1.01449 0 0 1 290 444)"/><text fill="#FFFFFF" fill-opacity="1" font-family="Arial,Arial_MSFontService,sans-serif" font-style="normal" font-variant="normal" font-weight="700" font-stretch="normal" font-size="48" text-anchor="start" direction="ltr" writing-mode="lr-tb" unicode-bidi="normal" text-decoration="none" transform="matrix(1 0 0 0.985714 587.668 495)">N</text><path d="M345 0 414 0 414 69 345 69Z" fill="#D97638" fill-rule="nonzero" fill-opacity="1" transform="matrix(1.01449 0 0 1 290 444)"/><text fill="#FFFFFF" fill-opacity="1" font-family="Arial,Arial_MSFontService,sans-serif" font-style="normal" font-variant="normal" font-weight="700" font-stretch="normal" font-size="48" text-anchor="start" direction="ltr" writing-mode="lr-tb" unicode-bidi="normal" text-decoration="none" transform="matrix(1 0 0 0.985714 656.332 495)">O</text></g></g></g></g></g></svg>